<?xml version="1.0" encoding="UTF-8"?><svg xmlns="http://www.w3.org/2000/svg" xmlns:xlink="http://www.w3.org/1999/xlink" contentScriptType="text/ecmascript" width="30pt" zoomAndPan="magnify" contentStyleType="text/css" viewBox="0 0 30 30.000001" height="30.000001pt" preserveAspectRatio="xMidYMid meet" version="1.2"><g xml:id="surface1" id="surface1"><path style=" stroke:none;fill-rule:nonzero;fill:rgb(100%,74.899292%,0%);fill-opacity:1;" d="M 15 8.46875 L 15 3.628906 L 2.902344 3.628906 L 2.902344 25.402344 L 27.097656 25.402344 L 27.097656 8.46875 Z M 12.582031 22.984375 L 5.324219 22.984375 L 5.324219 20.566406 L 12.582031 20.566406 Z M 12.582031 18.144531 L 5.324219 18.144531 L 5.324219 15.726562 L 12.582031 15.726562 Z M 12.582031 13.304688 L 5.324219 13.304688 L 5.324219 10.886719 L 12.582031 10.886719 Z M 12.582031 8.46875 L 5.324219 8.46875 L 5.324219 6.046875 L 12.582031 6.046875 Z M 24.675781 22.984375 L 15 22.984375 L 15 10.886719 L 24.675781 10.886719 Z M 22.257812 13.304688 L 17.417969 13.304688 L 17.417969 15.726562 L 22.257812 15.726562 Z M 22.257812 18.144531 L 17.417969 18.144531 L 17.417969 20.566406 L 22.257812 20.566406 Z M 22.257812 18.144531 "/></g></svg>