<?xml version="1.0" encoding="UTF-8"?><svg xmlns="http://www.w3.org/2000/svg" xmlns:xlink="http://www.w3.org/1999/xlink" contentScriptType="text/ecmascript" width="30pt" zoomAndPan="magnify" contentStyleType="text/css" viewBox="0 0 30 30.000001" height="30.000001pt" preserveAspectRatio="xMidYMid meet" version="1.2"><defs><clipPath xml:id="clip1" id="clip1"><path d="M 2 13.1875 L 28 13.1875 L 28 18 L 2 18 Z M 2 13.1875 "/></clipPath></defs><g xml:id="surface1" id="surface1"><g clip-rule="nonzero" clip-path="url(#clip1)"><path style=" stroke:none;fill-rule:nonzero;fill:rgb(92.939758%,25.878906%,14.118958%);fill-opacity:1;" d="M 23.054688 13.910156 C 20.699219 13.910156 20.527344 15.121094 19.027344 15.121094 C 17.589844 15.121094 17.308594 13.910156 15 13.910156 C 12.640625 13.910156 12.472656 15.121094 10.972656 15.121094 C 9.53125 15.121094 9.253906 13.910156 6.945312 13.910156 C 4.585938 13.910156 4.414062 15.121094 2.914062 15.121094 L 2.914062 17.539062 C 5.214844 17.539062 5.539062 16.332031 6.96875 16.332031 C 8.40625 16.332031 8.683594 17.539062 10.996094 17.539062 C 13.355469 17.539062 13.523438 16.332031 15.023438 16.332031 C 16.464844 16.332031 16.742188 17.539062 19.050781 17.539062 C 21.410156 17.539062 21.582031 16.332031 23.082031 16.332031 C 24.519531 16.332031 24.773438 17.515625 27.097656 17.539062 L 27.085938 15.144531 C 25.136719 14.746094 25.125 13.910156 23.054688 13.910156 Z M 23.054688 13.910156 "/></g><path style=" stroke:none;fill-rule:nonzero;fill:rgb(79.60968%,34.118652%,24.308777%);fill-opacity:1;" d="M 27.097656 10.886719 C 27.121094 6.046875 21.917969 3.628906 15 3.628906 C 8.09375 3.628906 2.902344 6.046875 2.902344 10.886719 L 2.902344 12.097656 L 27.097656 12.097656 Z M 27.097656 10.886719 "/><path style=" stroke:none;fill-rule:nonzero;fill:rgb(79.60968%,34.118652%,24.308777%);fill-opacity:1;" d="M 2.902344 19.355469 L 27.097656 19.355469 L 27.097656 25.402344 L 2.902344 25.402344 Z M 2.902344 19.355469 "/></g></svg>