<?xml version="1.0" encoding="UTF-8"?><svg xmlns="http://www.w3.org/2000/svg" xmlns:xlink="http://www.w3.org/1999/xlink" contentScriptType="text/ecmascript" width="30pt" zoomAndPan="magnify" contentStyleType="text/css" viewBox="0 0 30 30.000001" height="30.000001pt" preserveAspectRatio="xMidYMid meet" version="1.2"><g xml:id="surface1" id="surface1"><path style=" stroke:none;fill-rule:nonzero;fill:rgb(50.588989%,15.689087%,53.729248%);fill-opacity:1;" d="M 21.046875 13.304688 L 21.046875 3.628906 L 8.953125 3.628906 L 8.953125 8.46875 L 4.113281 8.46875 L 4.113281 25.402344 L 13.789062 25.402344 L 13.789062 20.566406 L 16.210938 20.566406 L 16.210938 25.402344 L 25.886719 25.402344 L 25.886719 13.304688 Z M 8.953125 22.984375 L 6.53125 22.984375 L 6.53125 20.566406 L 8.953125 20.566406 Z M 8.953125 18.144531 L 6.53125 18.144531 L 6.53125 15.726562 L 8.953125 15.726562 Z M 8.953125 13.304688 L 6.53125 13.304688 L 6.53125 10.886719 L 8.953125 10.886719 Z M 13.789062 18.144531 L 11.371094 18.144531 L 11.371094 15.726562 L 13.789062 15.726562 Z M 13.789062 13.304688 L 11.371094 13.304688 L 11.371094 10.886719 L 13.789062 10.886719 Z M 13.789062 8.46875 L 11.371094 8.46875 L 11.371094 6.046875 L 13.789062 6.046875 Z M 18.628906 18.144531 L 16.210938 18.144531 L 16.210938 15.726562 L 18.628906 15.726562 Z M 18.628906 13.304688 L 16.210938 13.304688 L 16.210938 10.886719 L 18.628906 10.886719 Z M 18.628906 8.46875 L 16.210938 8.46875 L 16.210938 6.046875 L 18.628906 6.046875 Z M 23.46875 22.984375 L 21.046875 22.984375 L 21.046875 20.566406 L 23.46875 20.566406 Z M 23.46875 18.144531 L 21.046875 18.144531 L 21.046875 15.726562 L 23.46875 15.726562 Z M 23.46875 18.144531 "/></g></svg>