<?xml version="1.0" encoding="UTF-8"?><svg xmlns="http://www.w3.org/2000/svg" xmlns:xlink="http://www.w3.org/1999/xlink" contentScriptType="text/ecmascript" width="375pt" zoomAndPan="magnify" contentStyleType="text/css" viewBox="0 0 375 374.999991" height="374.999991pt" preserveAspectRatio="xMidYMid meet" version="1.2"><g xml:id="surface1" id="surface1"><path style=" stroke:none;fill-rule:nonzero;fill:rgb(50.588989%,15.689087%,53.729248%);fill-opacity:1;" d="M 218.75 181.25 L 218.75 131.25 L 156.25 131.25 L 156.25 156.25 L 131.25 156.25 L 131.25 243.75 L 181.25 243.75 L 181.25 218.75 L 193.75 218.75 L 193.75 243.75 L 243.75 243.75 L 243.75 181.25 Z M 156.25 231.25 L 143.75 231.25 L 143.75 218.75 L 156.25 218.75 Z M 156.25 206.25 L 143.75 206.25 L 143.75 193.75 L 156.25 193.75 Z M 156.25 181.25 L 143.75 181.25 L 143.75 168.75 L 156.25 168.75 Z M 181.25 206.25 L 168.75 206.25 L 168.75 193.75 L 181.25 193.75 Z M 181.25 181.25 L 168.75 181.25 L 168.75 168.75 L 181.25 168.75 Z M 181.25 156.25 L 168.75 156.25 L 168.75 143.75 L 181.25 143.75 Z M 206.25 206.25 L 193.75 206.25 L 193.75 193.75 L 206.25 193.75 Z M 206.25 181.25 L 193.75 181.25 L 193.75 168.75 L 206.25 168.75 Z M 206.25 156.25 L 193.75 156.25 L 193.75 143.75 L 206.25 143.75 Z M 231.25 231.25 L 218.75 231.25 L 218.75 218.75 L 231.25 218.75 Z M 231.25 206.25 L 218.75 206.25 L 218.75 193.75 L 231.25 193.75 Z M 231.25 206.25 "/></g></svg>