<?xml version="1.0" encoding="UTF-8"?><svg xmlns="http://www.w3.org/2000/svg" xmlns:xlink="http://www.w3.org/1999/xlink" contentScriptType="text/ecmascript" width="30pt" zoomAndPan="magnify" contentStyleType="text/css" viewBox="0 0 30 30.000001" height="30.000001pt" preserveAspectRatio="xMidYMid meet" version="1.2"><defs><clipPath xml:id="clip1" id="clip1"><path d="M 4 1.640625 L 20 1.640625 L 20 26.707031 L 4 26.707031 Z M 4 1.640625 "/></clipPath><clipPath xml:id="clip2" id="clip2"><path d="M 12 1.640625 L 20 1.640625 L 20 26.707031 L 12 26.707031 Z M 12 1.640625 "/></clipPath></defs><g xml:id="surface1" id="surface1"><path style=" stroke:none;fill-rule:nonzero;fill:rgb(40.388489%,14.118958%,8.239746%);fill-opacity:1;" d="M 24.199219 4.253906 C 23.984375 4.039062 23.695312 3.917969 23.394531 3.917969 L 18.835938 3.921875 C 18.207031 3.921875 17.695312 4.429688 17.695312 5.058594 L 17.695312 23.289062 C 17.695312 23.917969 18.207031 24.429688 18.835938 24.429688 L 23.394531 24.429688 C 24.023438 24.429688 24.53125 23.917969 24.53125 23.289062 L 24.53125 5.058594 C 24.53125 4.757812 24.414062 4.464844 24.199219 4.253906 Z M 24.199219 4.253906 "/><g clip-rule="nonzero" clip-path="url(#clip1)"><path style=" stroke:none;fill-rule:nonzero;fill:rgb(71.369934%,42.749023%,21.958923%);fill-opacity:1;" d="M 19.566406 1.90625 C 19.308594 1.691406 18.96875 1.597656 18.636719 1.65625 L 5.722656 3.9375 C 5.179688 4.035156 4.78125 4.507812 4.78125 5.058594 L 4.78125 23.289062 C 4.78125 23.84375 5.179688 24.316406 5.722656 24.410156 L 18.636719 26.691406 C 18.703125 26.703125 18.769531 26.707031 18.835938 26.707031 C 19.101562 26.707031 19.363281 26.613281 19.566406 26.441406 C 19.828125 26.226562 19.976562 25.90625 19.976562 25.570312 L 19.976562 2.78125 C 19.976562 2.441406 19.828125 2.125 19.566406 1.90625 Z M 19.566406 1.90625 "/></g><g clip-rule="nonzero" clip-path="url(#clip2)"><path style=" stroke:none;fill-rule:nonzero;fill:rgb(66.668701%,21.958923%,15.289307%);fill-opacity:1;" d="M 19.566406 1.90625 C 19.308594 1.691406 18.96875 1.597656 18.636719 1.65625 L 12.378906 2.761719 L 12.378906 25.585938 L 18.636719 26.691406 C 18.703125 26.703125 18.769531 26.707031 18.835938 26.707031 C 19.101562 26.707031 19.363281 26.613281 19.566406 26.441406 C 19.828125 26.226562 19.976562 25.90625 19.976562 25.570312 L 19.976562 2.78125 C 19.976562 2.441406 19.828125 2.125 19.566406 1.90625 Z M 19.566406 1.90625 "/></g><path style=" stroke:none;fill-rule:nonzero;fill:rgb(95.689392%,82.749939%,44.309998%);fill-opacity:1;" d="M 16.558594 16.074219 C 16.257812 16.074219 15.964844 15.953125 15.75 15.738281 C 15.539062 15.527344 15.417969 15.234375 15.417969 14.933594 C 15.417969 14.632812 15.539062 14.339844 15.75 14.128906 C 15.964844 13.914062 16.257812 13.792969 16.558594 13.792969 C 16.855469 13.792969 17.152344 13.914062 17.363281 14.128906 C 17.574219 14.339844 17.695312 14.632812 17.695312 14.933594 C 17.695312 15.234375 17.574219 15.527344 17.363281 15.738281 C 17.152344 15.953125 16.855469 16.074219 16.558594 16.074219 Z M 16.558594 16.074219 "/></g></svg>