<?xml version="1.0" encoding="UTF-8"?><svg xmlns="http://www.w3.org/2000/svg" xmlns:xlink="http://www.w3.org/1999/xlink" contentScriptType="text/ecmascript" width="30pt" zoomAndPan="magnify" contentStyleType="text/css" viewBox="0 0 30 30.000001" height="30.000001pt" preserveAspectRatio="xMidYMid meet" version="1.2"><g xml:id="surface1" id="surface1"><path style=" stroke:none;fill-rule:nonzero;fill:rgb(19.999695%,47.059631%,62.348938%);fill-opacity:1;" d="M 25.367188 17.976562 L 27.097656 16.246094 L 25.367188 14.515625 L 21.046875 18.835938 L 10.679688 8.46875 L 15 4.148438 L 13.269531 2.417969 L 11.539062 4.148438 L 9.808594 2.417969 L 7.222656 5.007812 L 5.492188 3.277344 L 3.761719 5.007812 L 5.492188 6.738281 L 2.902344 9.328125 L 4.632812 11.054688 L 2.902344 12.785156 L 4.632812 14.515625 L 8.953125 10.199219 L 19.320312 20.566406 L 15 24.882812 L 16.730469 26.613281 L 18.460938 24.882812 L 20.191406 26.613281 L 22.777344 24.023438 L 24.507812 25.753906 L 26.238281 24.023438 L 24.507812 22.292969 L 27.097656 19.707031 Z M 25.367188 17.976562 "/></g></svg>