<?xml version="1.0" encoding="UTF-8"?><svg xmlns="http://www.w3.org/2000/svg" xmlns:xlink="http://www.w3.org/1999/xlink" contentScriptType="text/ecmascript" width="30pt" zoomAndPan="magnify" contentStyleType="text/css" viewBox="0 0 30 30.000001" height="30.000001pt" preserveAspectRatio="xMidYMid meet" version="1.2"><g xml:id="surface1" id="surface1"><path style=" stroke:none;fill-rule:nonzero;fill:rgb(65.098572%,65.098572%,65.098572%);fill-opacity:1;" d="M 24.675781 24.195312 C 24.675781 24.355469 24.648438 24.507812 24.585938 24.65625 C 24.523438 24.804688 24.4375 24.933594 24.324219 25.050781 C 24.210938 25.164062 24.078125 25.25 23.929688 25.3125 C 23.78125 25.371094 23.628906 25.402344 23.46875 25.402344 L 6.53125 25.402344 C 6.371094 25.402344 6.21875 25.371094 6.070312 25.3125 C 5.921875 25.25 5.789062 25.164062 5.675781 25.050781 C 5.5625 24.933594 5.476562 24.804688 5.414062 24.65625 C 5.351562 24.507812 5.324219 24.355469 5.324219 24.195312 L 5.324219 13.304688 L 1.695312 13.304688 L 14.1875 1.949219 C 14.417969 1.738281 14.6875 1.636719 15 1.636719 C 15.3125 1.636719 15.582031 1.738281 15.8125 1.949219 L 28.304688 13.304688 L 24.675781 13.304688 Z M 24.675781 24.195312 "/></g></svg>