<?xml version="1.0" encoding="UTF-8"?><svg xmlns="http://www.w3.org/2000/svg" xmlns:xlink="http://www.w3.org/1999/xlink" contentScriptType="text/ecmascript" width="30pt" zoomAndPan="magnify" contentStyleType="text/css" viewBox="0 0 30 30.000001" height="30.000001pt" preserveAspectRatio="xMidYMid meet" version="1.2"><g xml:id="surface1" id="surface1"><path style=" stroke:none;fill-rule:nonzero;fill:rgb(50.588989%,15.689087%,53.729248%);fill-opacity:1;" d="M 15.179688 23.226562 L 15.179688 19.816406 L 22.003906 19.816406 L 22.003906 18.109375 L 12.570312 18.109375 C 10.253906 18.074219 8.359375 16.179688 8.359375 13.84375 C 8.359375 12.257812 9.230469 10.894531 10.507812 10.160156 C 10.234375 9.75 10.066406 9.257812 10.066406 8.726562 C 10.066406 8.640625 10.082031 8.539062 10.097656 8.453125 C 8.070312 9.410156 6.652344 11.457031 6.652344 13.84375 C 6.652344 16.847656 8.886719 19.304688 11.769531 19.730469 L 11.769531 23.226562 L 6.652344 23.226562 L 6.652344 24.929688 L 23.710938 24.929688 L 23.710938 23.226562 Z M 15.179688 23.226562 "/><path style=" stroke:none;fill-rule:nonzero;fill:rgb(50.588989%,15.689087%,53.729248%);fill-opacity:1;" d="M 12.027344 6.238281 C 12.214844 6.203125 12.417969 6.167969 12.621094 6.167969 C 14.039062 6.167969 15.179688 7.3125 15.179688 8.726562 C 15.179688 9.734375 14.601562 10.585938 13.765625 11.011719 L 14.773438 13.777344 L 16.375 13.195312 L 16.921875 14.699219 L 18.523438 14.117188 L 17.980469 12.617188 L 19.582031 12.035156 L 16.445312 3.40625 L 14.839844 3.96875 L 14.277344 2.46875 L 12.675781 3.046875 L 13.21875 4.550781 L 11.632812 5.128906 Z M 12.027344 6.238281 "/><path style=" stroke:none;fill-rule:nonzero;fill:rgb(50.588989%,15.689087%,53.729248%);fill-opacity:1;" d="M 13.902344 8.726562 C 13.902344 8.898438 13.871094 9.0625 13.804688 9.21875 C 13.738281 9.375 13.648438 9.511719 13.527344 9.632812 C 13.40625 9.753906 13.269531 9.84375 13.113281 9.910156 C 12.957031 9.972656 12.792969 10.007812 12.621094 10.007812 C 12.453125 10.007812 12.289062 9.972656 12.132812 9.910156 C 11.976562 9.84375 11.839844 9.753906 11.71875 9.632812 C 11.597656 9.511719 11.507812 9.375 11.441406 9.21875 C 11.375 9.0625 11.34375 8.898438 11.34375 8.726562 C 11.34375 8.558594 11.375 8.394531 11.441406 8.238281 C 11.507812 8.082031 11.597656 7.941406 11.71875 7.824219 C 11.839844 7.703125 11.976562 7.609375 12.132812 7.546875 C 12.289062 7.480469 12.453125 7.449219 12.621094 7.449219 C 12.792969 7.449219 12.957031 7.480469 13.113281 7.546875 C 13.269531 7.609375 13.40625 7.703125 13.527344 7.824219 C 13.648438 7.941406 13.738281 8.082031 13.804688 8.238281 C 13.871094 8.394531 13.902344 8.558594 13.902344 8.726562 Z M 13.902344 8.726562 "/></g></svg>