<?xml version="1.0" encoding="UTF-8"?><svg xmlns="http://www.w3.org/2000/svg" xmlns:xlink="http://www.w3.org/1999/xlink" contentScriptType="text/ecmascript" width="30pt" zoomAndPan="magnify" contentStyleType="text/css" viewBox="0 0 30 30.000001" height="30.000001pt" preserveAspectRatio="xMidYMid meet" version="1.2"><g xml:id="surface1" id="surface1"><path style=" stroke:none;fill-rule:nonzero;fill:rgb(100%,74.899292%,0%);fill-opacity:1;" d="M 25.523438 6.652344 C 24.25 6.25 22.847656 6.078125 21.503906 6.078125 C 19.261719 6.078125 16.847656 6.539062 15.179688 7.800781 C 13.515625 6.539062 11.101562 6.078125 8.859375 6.078125 C 6.621094 6.078125 4.207031 6.539062 2.539062 7.800781 L 2.539062 25.613281 C 4.207031 24.351562 6.621094 23.890625 8.859375 23.890625 C 11.101562 23.890625 13.515625 24.351562 15.179688 25.613281 C 16.847656 24.351562 19.261719 23.890625 21.503906 23.890625 C 22.847656 23.890625 24.25 24.0625 25.523438 24.464844 C 26.386719 24.753906 27.132812 25.097656 27.824219 25.613281 L 27.824219 7.800781 C 27.132812 7.285156 26.386719 6.941406 25.523438 6.652344 Z M 25.523438 22.167969 C 24.261719 21.765625 22.882812 21.59375 21.503906 21.59375 C 19.546875 21.59375 16.734375 22.339844 15.179688 23.316406 L 15.179688 10.101562 C 16.734375 9.125 19.546875 8.378906 21.503906 8.378906 C 22.882812 8.378906 24.261719 8.550781 25.523438 8.953125 Z M 25.523438 22.167969 "/></g></svg>