<?xml version="1.0" encoding="UTF-8"?><svg xmlns="http://www.w3.org/2000/svg" xmlns:xlink="http://www.w3.org/1999/xlink" contentScriptType="text/ecmascript" width="30pt" zoomAndPan="magnify" contentStyleType="text/css" viewBox="0 0 30 30.000001" height="30.000001pt" preserveAspectRatio="xMidYMid meet" version="1.2"><g xml:id="surface1" id="surface1"><path style=" stroke:none;fill-rule:nonzero;fill:rgb(83.918762%,10.5896%,10.5896%);fill-opacity:1;" d="M 21.929688 14.539062 L 26.746094 9.726562 C 27.21875 9.253906 27.21875 8.492188 26.746094 8.019531 L 21.496094 2.769531 C 21.023438 2.296875 20.261719 2.296875 19.789062 2.769531 L 14.976562 7.585938 L 10.160156 2.769531 C 9.917969 2.539062 9.617188 2.417969 9.300781 2.417969 C 9 2.417969 8.683594 2.539062 8.457031 2.769531 L 3.207031 8.019531 C 2.734375 8.492188 2.734375 9.253906 3.207031 9.726562 L 8.019531 14.539062 L 3.207031 19.355469 C 2.734375 19.828125 2.734375 20.589844 3.207031 21.058594 L 8.457031 26.308594 C 8.925781 26.78125 9.691406 26.78125 10.160156 26.308594 L 14.976562 21.496094 L 19.789062 26.308594 C 20.03125 26.550781 20.335938 26.660156 20.648438 26.660156 C 20.964844 26.660156 21.265625 26.539062 21.507812 26.308594 L 26.757812 21.058594 C 27.230469 20.589844 27.230469 19.828125 26.757812 19.355469 Z M 15 10.886719 C 15.664062 10.886719 16.210938 11.429688 16.210938 12.097656 C 16.210938 12.761719 15.664062 13.304688 15 13.304688 C 14.335938 13.304688 13.789062 12.761719 13.789062 12.097656 C 13.789062 11.429688 14.335938 10.886719 15 10.886719 Z M 9.300781 13.257812 L 4.910156 8.878906 L 9.300781 4.488281 L 13.679688 8.867188 Z M 12.582031 15.726562 C 11.914062 15.726562 11.371094 15.179688 11.371094 14.515625 C 11.371094 13.851562 11.914062 13.304688 12.582031 13.304688 C 13.246094 13.304688 13.789062 13.851562 13.789062 14.515625 C 13.789062 15.179688 13.246094 15.726562 12.582031 15.726562 Z M 15 18.144531 C 14.335938 18.144531 13.789062 17.601562 13.789062 16.933594 C 13.789062 16.269531 14.335938 15.726562 15 15.726562 C 15.664062 15.726562 16.210938 16.269531 16.210938 16.933594 C 16.210938 17.601562 15.664062 18.144531 15 18.144531 Z M 17.417969 13.304688 C 18.085938 13.304688 18.628906 13.851562 18.628906 14.515625 C 18.628906 15.179688 18.085938 15.726562 17.417969 15.726562 C 16.753906 15.726562 16.210938 15.179688 16.210938 14.515625 C 16.210938 13.851562 16.753906 13.304688 17.417969 13.304688 Z M 20.636719 24.605469 L 16.246094 20.226562 L 20.636719 15.835938 L 25.015625 20.214844 Z M 20.636719 24.605469 "/></g></svg>