<?xml version="1.0" encoding="UTF-8"?><svg xmlns="http://www.w3.org/2000/svg" xmlns:xlink="http://www.w3.org/1999/xlink" contentScriptType="text/ecmascript" width="30pt" zoomAndPan="magnify" contentStyleType="text/css" viewBox="0 0 30 30.000001" height="30.000001pt" preserveAspectRatio="xMidYMid meet" version="1.2"><g xml:id="surface1" id="surface1"><path style=" stroke:none;fill-rule:nonzero;fill:rgb(19.999695%,47.059631%,62.348938%);fill-opacity:1;" d="M 1.695312 13.304688 L 1.695312 25.402344 L 7.742188 25.402344 L 7.742188 18.144531 L 12.582031 18.144531 L 12.582031 25.402344 L 18.628906 25.402344 L 18.628906 13.304688 L 10.160156 7.257812 Z M 1.695312 13.304688 "/><path style=" stroke:none;fill-rule:nonzero;fill:rgb(19.999695%,47.059631%,62.348938%);fill-opacity:1;" d="M 12.582031 3.628906 L 12.582031 6.011719 L 21.046875 12.058594 L 21.046875 13.304688 L 23.46875 13.304688 L 23.46875 15.726562 L 21.046875 15.726562 L 21.046875 18.144531 L 23.46875 18.144531 L 23.46875 20.566406 L 21.046875 20.566406 L 21.046875 25.402344 L 28.304688 25.402344 L 28.304688 3.628906 Z M 23.46875 10.886719 L 21.046875 10.886719 L 21.046875 8.46875 L 23.46875 8.46875 Z M 23.46875 10.886719 "/></g></svg>