<?xml version="1.0" encoding="UTF-8"?><svg xmlns="http://www.w3.org/2000/svg" xmlns:xlink="http://www.w3.org/1999/xlink" contentScriptType="text/ecmascript" width="30pt" zoomAndPan="magnify" contentStyleType="text/css" viewBox="0 0 30 30.000001" height="30.000001pt" preserveAspectRatio="xMidYMid meet" version="1.2"><defs><clipPath xml:id="clip1" id="clip1"><path d="M 1.5 2 L 28.355469 2 L 28.355469 27 L 1.5 27 Z M 1.5 2 "/></clipPath></defs><g xml:id="surface1" id="surface1"><g clip-rule="nonzero" clip-path="url(#clip1)"><path style=" stroke:none;fill-rule:nonzero;fill:rgb(40.388489%,14.118958%,8.239746%);fill-opacity:1;" d="M 25.121094 25.027344 L 25.121094 9.566406 L 26.308594 9.566406 L 26.96875 3.507812 L 25.085938 3.507812 L 25.085938 2.21875 L 23.441406 2.21875 L 23.441406 3.507812 L 21.59375 3.507812 L 22.253906 9.566406 L 23.476562 9.566406 L 23.476562 25.027344 L 19.507812 25.027344 L 19.507812 22.394531 L 21.207031 22.394531 L 21.207031 19.832031 L 17.699219 19.832031 L 17.699219 17.199219 L 18.738281 17.199219 L 18.738281 14.632812 L 17.699219 14.632812 L 17.699219 12.773438 L 16.054688 12.773438 L 16.054688 14.632812 L 8.972656 14.632812 L 8.972656 12.773438 L 7.332031 12.773438 L 7.332031 14.632812 L 6.289062 14.632812 L 6.289062 17.199219 L 7.332031 17.199219 L 7.332031 19.832031 L 3.820312 19.832031 L 3.820312 22.394531 L 6.398438 22.394531 L 6.398438 25.027344 L 1.5 25.027344 L 1.5 26.667969 L 28.355469 26.667969 L 28.355469 25.027344 Z M 8.972656 17.199219 L 16.054688 17.199219 L 16.054688 19.832031 L 8.972656 19.832031 Z M 17.863281 25.027344 L 8.042969 25.027344 L 8.042969 22.394531 L 17.863281 22.394531 Z M 17.863281 25.027344 "/></g></g></svg>