<?xml version="1.0" encoding="UTF-8"?><svg xmlns="http://www.w3.org/2000/svg" xmlns:xlink="http://www.w3.org/1999/xlink" contentScriptType="text/ecmascript" width="30pt" zoomAndPan="magnify" contentStyleType="text/css" viewBox="0 0 30 30.000001" height="30.000001pt" preserveAspectRatio="xMidYMid meet" version="1.2"><defs><clipPath xml:id="clip1" id="clip1"><path d="M 16 5 L 27.410156 5 L 27.410156 24 L 16 24 Z M 16 5 "/></clipPath><clipPath xml:id="clip2" id="clip2"><path d="M 22 11 L 27.410156 11 L 27.410156 19 L 22 19 Z M 22 11 "/></clipPath><clipPath xml:id="clip3" id="clip3"><path d="M 2.734375 5 L 15 5 L 15 24 L 2.734375 24 Z M 2.734375 5 "/></clipPath><clipPath xml:id="clip4" id="clip4"><path d="M 2.734375 11 L 8 11 L 8 19 L 2.734375 19 Z M 2.734375 11 "/></clipPath><clipPath xml:id="clip5" id="clip5"><path d="M 20 9 L 27.410156 9 L 27.410156 21 L 20 21 Z M 20 9 "/></clipPath><clipPath xml:id="clip6" id="clip6"><path d="M 2.734375 9 L 10 9 L 10 21 L 2.734375 21 Z M 2.734375 9 "/></clipPath><clipPath xml:id="clip7" id="clip7"><path d="M 24 13 L 27.410156 13 L 27.410156 16 L 24 16 Z M 24 13 "/></clipPath><clipPath xml:id="clip8" id="clip8"><path d="M 2.734375 13 L 6 13 L 6 16 L 2.734375 16 Z M 2.734375 13 "/></clipPath></defs><g xml:id="surface1" id="surface1"><g clip-rule="nonzero" clip-path="url(#clip1)"><path style=" stroke:none;fill-rule:nonzero;fill:rgb(11.369324%,47.44873%,8.239746%);fill-opacity:1;" d="M 16.070312 5.8125 L 16.070312 11.242188 C 17.507812 11.675781 18.5625 13.011719 18.5625 14.589844 C 18.5625 16.164062 17.507812 17.5 16.070312 17.933594 L 16.070312 23.363281 L 27.410156 23.363281 L 27.410156 20.128906 L 25.976562 20.128906 C 22.921875 20.128906 20.4375 17.644531 20.4375 14.589844 C 20.4375 11.53125 22.921875 9.046875 25.976562 9.046875 L 27.410156 9.046875 L 27.410156 5.8125 Z M 16.070312 5.8125 "/></g><path style=" stroke:none;fill-rule:nonzero;fill:rgb(11.369324%,47.44873%,8.239746%);fill-opacity:1;" d="M 16.566406 14.589844 C 16.566406 14.144531 16.375 13.75 16.070312 13.472656 L 16.070312 15.703125 C 16.375 15.425781 16.566406 15.03125 16.566406 14.589844 Z M 16.566406 14.589844 "/><g clip-rule="nonzero" clip-path="url(#clip2)"><path style=" stroke:none;fill-rule:nonzero;fill:rgb(11.369324%,47.44873%,8.239746%);fill-opacity:1;" d="M 22.433594 14.589844 C 22.433594 16.542969 24.023438 18.132812 25.976562 18.132812 L 27.410156 18.132812 L 27.410156 15.585938 L 24.925781 15.585938 L 24.925781 13.589844 L 27.410156 13.589844 L 27.410156 11.042969 L 25.976562 11.042969 C 24.023438 11.042969 22.433594 12.632812 22.433594 14.589844 Z M 22.433594 14.589844 "/></g><g clip-rule="nonzero" clip-path="url(#clip3)"><path style=" stroke:none;fill-rule:nonzero;fill:rgb(11.369324%,47.44873%,8.239746%);fill-opacity:1;" d="M 11.582031 14.589844 C 11.582031 13.011719 12.636719 11.675781 14.074219 11.242188 L 14.074219 5.8125 L 2.734375 5.8125 L 2.734375 9.046875 L 4.164062 9.046875 C 7.21875 9.046875 9.707031 11.53125 9.707031 14.589844 C 9.707031 17.644531 7.21875 20.128906 4.164062 20.128906 L 2.734375 20.128906 L 2.734375 23.363281 L 14.074219 23.363281 L 14.074219 17.933594 C 12.636719 17.5 11.582031 16.164062 11.582031 14.589844 Z M 11.582031 14.589844 "/></g><g clip-rule="nonzero" clip-path="url(#clip4)"><path style=" stroke:none;fill-rule:nonzero;fill:rgb(11.369324%,47.44873%,8.239746%);fill-opacity:1;" d="M 7.710938 14.589844 C 7.710938 12.632812 6.121094 11.042969 4.164062 11.042969 L 2.734375 11.042969 L 2.734375 13.589844 L 5.21875 13.589844 L 5.21875 15.585938 L 2.734375 15.585938 L 2.734375 18.132812 L 4.164062 18.132812 C 6.121094 18.132812 7.710938 16.542969 7.710938 14.589844 Z M 7.710938 14.589844 "/></g><path style=" stroke:none;fill-rule:nonzero;fill:rgb(11.369324%,47.44873%,8.239746%);fill-opacity:1;" d="M 13.578125 14.589844 C 13.578125 15.03125 13.769531 15.425781 14.074219 15.703125 L 14.074219 13.472656 C 13.769531 13.75 13.578125 14.144531 13.578125 14.589844 Z M 13.578125 14.589844 "/><path style=" stroke:none;fill-rule:nonzero;fill:rgb(100%,100%,100%);fill-opacity:1;" d="M 18.5625 14.589844 C 18.5625 13.011719 17.507812 11.675781 16.070312 11.242188 L 16.070312 5.8125 L 14.074219 5.8125 L 14.074219 23.363281 L 16.070312 23.363281 L 16.070312 17.933594 C 17.507812 17.5 18.5625 16.164062 18.5625 14.589844 Z M 16.566406 14.589844 C 16.566406 15.03125 16.375 15.425781 16.070312 15.703125 L 16.070312 13.472656 C 16.375 13.75 16.566406 14.144531 16.566406 14.589844 Z M 16.566406 14.589844 "/><path style=" stroke:none;fill-rule:nonzero;fill:rgb(100%,100%,100%);fill-opacity:1;" d="M 11.582031 14.589844 C 11.582031 16.164062 12.636719 17.5 14.074219 17.933594 L 14.074219 15.703125 C 13.769531 15.425781 13.578125 15.03125 13.578125 14.589844 C 13.578125 14.144531 13.769531 13.75 14.074219 13.472656 L 14.074219 11.242188 C 12.636719 11.675781 11.582031 13.011719 11.582031 14.589844 Z M 11.582031 14.589844 "/><g clip-rule="nonzero" clip-path="url(#clip5)"><path style=" stroke:none;fill-rule:nonzero;fill:rgb(100%,100%,100%);fill-opacity:1;" d="M 20.4375 14.589844 C 20.4375 17.644531 22.921875 20.128906 25.976562 20.128906 L 27.410156 20.128906 L 27.410156 18.132812 L 25.976562 18.132812 C 24.023438 18.132812 22.433594 16.542969 22.433594 14.589844 C 22.433594 12.632812 24.023438 11.042969 25.976562 11.042969 L 27.410156 11.042969 L 27.410156 9.046875 L 25.976562 9.046875 C 22.921875 9.046875 20.4375 11.53125 20.4375 14.589844 Z M 20.4375 14.589844 "/></g><g clip-rule="nonzero" clip-path="url(#clip6)"><path style=" stroke:none;fill-rule:nonzero;fill:rgb(100%,100%,100%);fill-opacity:1;" d="M 9.707031 14.589844 C 9.707031 11.53125 7.21875 9.046875 4.164062 9.046875 L 2.734375 9.046875 L 2.734375 11.042969 L 4.164062 11.042969 C 6.121094 11.042969 7.710938 12.632812 7.710938 14.589844 C 7.710938 16.542969 6.121094 18.132812 4.164062 18.132812 L 2.734375 18.132812 L 2.734375 20.128906 L 4.164062 20.128906 C 7.21875 20.128906 9.707031 17.644531 9.707031 14.589844 Z M 9.707031 14.589844 "/></g><g clip-rule="nonzero" clip-path="url(#clip7)"><path style=" stroke:none;fill-rule:nonzero;fill:rgb(100%,100%,100%);fill-opacity:1;" d="M 24.925781 13.589844 L 27.410156 13.589844 L 27.410156 15.585938 L 24.925781 15.585938 Z M 24.925781 13.589844 "/></g><g clip-rule="nonzero" clip-path="url(#clip8)"><path style=" stroke:none;fill-rule:nonzero;fill:rgb(100%,100%,100%);fill-opacity:1;" d="M 2.734375 13.589844 L 5.21875 13.589844 L 5.21875 15.585938 L 2.734375 15.585938 Z M 2.734375 13.589844 "/></g></g></svg>