<?xml version="1.0" encoding="UTF-8"?><svg xmlns="http://www.w3.org/2000/svg" xmlns:xlink="http://www.w3.org/1999/xlink" contentScriptType="text/ecmascript" width="30pt" zoomAndPan="magnify" contentStyleType="text/css" viewBox="0 0 30 30.000001" height="30.000001pt" preserveAspectRatio="xMidYMid meet" version="1.2"><defs><clipPath xml:id="clip1" id="clip1"><path d="M 1.28125 6 L 28.863281 6 L 28.863281 23 L 1.28125 23 Z M 1.28125 6 "/></clipPath><clipPath xml:id="clip2" id="clip2"><path d="M 1.28125 5 L 28.863281 5 L 28.863281 24 L 1.28125 24 Z M 1.28125 5 "/></clipPath></defs><g xml:id="surface1" id="surface1"><g clip-rule="nonzero" clip-path="url(#clip1)"><path style=" stroke:none;fill-rule:nonzero;fill:rgb(96.469116%,49.798584%,32.939148%);fill-opacity:1;" d="M 1.832031 6.230469 L 28.3125 6.230469 L 28.3125 22.945312 L 1.832031 22.945312 Z M 1.832031 6.230469 "/></g><path style=" stroke:none;fill-rule:nonzero;fill:rgb(80.389404%,59.609985%,27.059937%);fill-opacity:1;" d="M 20.457031 8.765625 L 25.839844 8.765625 L 25.839844 14.972656 L 20.457031 14.972656 Z M 20.457031 8.765625 "/><g clip-rule="nonzero" clip-path="url(#clip2)"><path style=" stroke:none;fill-rule:nonzero;fill:rgb(48.239136%,9.408569%,9.408569%);fill-opacity:1;" d="M 28.3125 23.496094 L 1.832031 23.496094 C 1.527344 23.496094 1.28125 23.25 1.28125 22.945312 L 1.28125 6.230469 C 1.28125 5.925781 1.527344 5.679688 1.832031 5.679688 L 28.3125 5.679688 C 28.617188 5.679688 28.863281 5.925781 28.863281 6.230469 L 28.863281 22.945312 C 28.863281 23.25 28.617188 23.496094 28.3125 23.496094 Z M 2.382812 22.398438 L 27.765625 22.398438 L 27.765625 6.78125 L 2.382812 6.78125 Z M 2.382812 22.398438 "/></g><path style=" stroke:none;fill-rule:nonzero;fill:rgb(48.239136%,9.408569%,9.408569%);fill-opacity:1;" d="M 25.839844 15.523438 L 20.457031 15.523438 C 20.152344 15.523438 19.90625 15.277344 19.90625 14.972656 L 19.90625 8.765625 C 19.90625 8.460938 20.152344 8.214844 20.457031 8.214844 L 25.839844 8.214844 C 26.144531 8.214844 26.390625 8.460938 26.390625 8.765625 L 26.390625 14.972656 C 26.390625 15.277344 26.144531 15.523438 25.839844 15.523438 Z M 21.007812 14.425781 L 25.292969 14.425781 L 25.292969 9.3125 L 21.007812 9.3125 Z M 21.007812 14.425781 "/><path style=" stroke:none;fill-rule:nonzero;fill:rgb(48.239136%,9.408569%,9.408569%);fill-opacity:1;" d="M 16.0625 21.070312 C 15.757812 21.070312 15.511719 20.824219 15.511719 20.523438 L 15.511719 11.675781 C 15.511719 11.375 15.757812 11.128906 16.0625 11.128906 C 16.363281 11.128906 16.609375 11.375 16.609375 11.675781 L 16.609375 20.523438 C 16.609375 20.824219 16.363281 21.070312 16.0625 21.070312 Z M 16.0625 21.070312 "/><path style=" stroke:none;fill-rule:nonzero;fill:rgb(48.239136%,9.408569%,9.408569%);fill-opacity:1;" d="M 16.0625 10.082031 C 15.757812 10.082031 15.511719 9.835938 15.511719 9.535156 L 15.511719 8.65625 C 15.511719 8.351562 15.757812 8.105469 16.0625 8.105469 C 16.363281 8.105469 16.609375 8.351562 16.609375 8.65625 L 16.609375 9.535156 C 16.609375 9.835938 16.363281 10.082031 16.0625 10.082031 Z M 16.0625 10.082031 "/><path style=" stroke:none;fill-rule:nonzero;fill:rgb(48.239136%,9.408569%,9.408569%);fill-opacity:1;" d="M 7.601562 16.785156 L 4.304688 16.785156 C 4 16.785156 3.753906 16.539062 3.753906 16.238281 C 3.753906 15.933594 4 15.6875 4.304688 15.6875 L 7.601562 15.6875 C 7.902344 15.6875 8.148438 15.933594 8.148438 16.238281 C 8.148438 16.539062 7.902344 16.785156 7.601562 16.785156 Z M 7.601562 16.785156 "/><path style=" stroke:none;fill-rule:nonzero;fill:rgb(48.239136%,9.408569%,9.408569%);fill-opacity:1;" d="M 13.371094 18.929688 L 4.304688 18.929688 C 4 18.929688 3.753906 18.683594 3.753906 18.378906 C 3.753906 18.078125 4 17.832031 4.304688 17.832031 L 13.371094 17.832031 C 13.671875 17.832031 13.917969 18.078125 13.917969 18.378906 C 13.917969 18.683594 13.671875 18.929688 13.371094 18.929688 Z M 13.371094 18.929688 "/><path style=" stroke:none;fill-rule:nonzero;fill:rgb(48.239136%,9.408569%,9.408569%);fill-opacity:1;" d="M 13.371094 21.070312 L 4.304688 21.070312 C 4 21.070312 3.753906 20.824219 3.753906 20.523438 C 3.753906 20.21875 4 19.972656 4.304688 19.972656 L 13.371094 19.972656 C 13.671875 19.972656 13.917969 20.21875 13.917969 20.523438 C 13.917969 20.824219 13.671875 21.070312 13.371094 21.070312 Z M 13.371094 21.070312 "/></g></svg>