<?xml version="1.0" encoding="UTF-8"?><svg xmlns="http://www.w3.org/2000/svg" xmlns:xlink="http://www.w3.org/1999/xlink" contentScriptType="text/ecmascript" width="30pt" zoomAndPan="magnify" contentStyleType="text/css" viewBox="0 0 30 30.000001" height="30.000001pt" preserveAspectRatio="xMidYMid meet" version="1.2"><defs><clipPath xml:id="clip1" id="clip1"><path d="M 2.550781 4 L 27.230469 4 L 27.230469 26 L 2.550781 26 Z M 2.550781 4 "/></clipPath></defs><g xml:id="surface1" id="surface1"><path style=" stroke:none;fill-rule:nonzero;fill:rgb(19.999695%,47.059631%,62.348938%);fill-opacity:1;" d="M 23.601562 15.292969 L 24.0625 15.292969 L 24.0625 19.21875 L 23.601562 19.21875 Z M 23.601562 15.292969 "/><g clip-rule="nonzero" clip-path="url(#clip1)"><path style=" stroke:none;fill-rule:nonzero;fill:rgb(19.999695%,47.059631%,62.348938%);fill-opacity:1;" d="M 26.832031 15.292969 C 27.054688 15.292969 27.230469 15.113281 27.230469 14.894531 L 27.230469 11.925781 C 27.230469 11.785156 27.152344 11.652344 27.027344 11.582031 L 15.085938 4.851562 C 14.964844 4.785156 14.816406 4.785156 14.695312 4.851562 L 2.753906 11.582031 C 2.628906 11.652344 2.550781 11.785156 2.550781 11.925781 L 2.550781 14.894531 C 2.550781 15.113281 2.730469 15.292969 2.949219 15.292969 L 3.675781 15.292969 L 3.675781 19.21875 L 2.949219 19.21875 C 2.730469 19.21875 2.550781 19.394531 2.550781 19.613281 L 2.550781 21.59375 C 2.550781 21.8125 2.730469 21.988281 2.949219 21.988281 L 3.675781 21.988281 L 3.675781 25.289062 C 3.675781 25.507812 3.851562 25.683594 4.070312 25.683594 L 7.832031 25.683594 C 8.050781 25.683594 8.226562 25.507812 8.226562 25.289062 L 8.226562 21.988281 L 8.953125 21.988281 C 9.171875 21.988281 9.347656 21.8125 9.347656 21.59375 L 9.347656 19.613281 C 9.347656 19.394531 9.171875 19.21875 8.953125 19.21875 L 8.226562 19.21875 L 8.226562 15.292969 L 8.953125 15.292969 C 9.171875 15.292969 9.347656 15.113281 9.347656 14.894531 C 9.347656 13.882812 9.960938 13.171875 11.222656 12.726562 C 12.335938 12.332031 13.652344 12.273438 14.335938 12.273438 C 14.660156 12.273438 14.859375 12.289062 14.863281 12.289062 C 14.882812 12.289062 14.898438 12.289062 14.917969 12.289062 C 14.929688 12.289062 15.128906 12.273438 15.449219 12.273438 C 16.945312 12.273438 20.433594 12.53125 20.433594 14.894531 C 20.433594 15.113281 20.609375 15.292969 20.828125 15.292969 L 21.554688 15.292969 L 21.554688 19.21875 L 20.828125 19.21875 C 20.609375 19.21875 20.433594 19.394531 20.433594 19.613281 L 20.433594 21.59375 C 20.433594 21.8125 20.609375 21.988281 20.828125 21.988281 L 21.554688 21.988281 L 21.554688 25.289062 C 21.554688 25.507812 21.734375 25.683594 21.953125 25.683594 L 25.710938 25.683594 C 25.929688 25.683594 26.109375 25.507812 26.109375 25.289062 L 26.109375 21.988281 L 26.832031 21.988281 C 27.054688 21.988281 27.230469 21.8125 27.230469 21.59375 L 27.230469 19.613281 C 27.230469 19.394531 27.054688 19.21875 26.832031 19.21875 L 26.109375 19.21875 L 26.109375 15.292969 Z M 6.972656 19.613281 C 6.972656 19.832031 6.796875 20.007812 6.578125 20.007812 L 5.324219 20.007812 C 5.105469 20.007812 4.929688 19.832031 4.929688 19.613281 L 4.929688 14.894531 C 4.929688 14.675781 5.105469 14.5 5.324219 14.5 L 6.578125 14.5 C 6.796875 14.5 6.972656 14.675781 6.972656 14.894531 Z M 24.855469 19.613281 C 24.855469 19.832031 24.679688 20.007812 24.457031 20.007812 L 23.207031 20.007812 C 22.988281 20.007812 22.808594 19.832031 22.808594 19.613281 L 22.808594 14.894531 C 22.808594 14.675781 22.988281 14.5 23.207031 14.5 L 24.457031 14.5 C 24.679688 14.5 24.855469 14.675781 24.855469 14.894531 Z M 24.855469 19.613281 "/></g><path style=" stroke:none;fill-rule:nonzero;fill:rgb(19.999695%,47.059631%,62.348938%);fill-opacity:1;" d="M 5.71875 15.292969 L 6.179688 15.292969 L 6.179688 19.21875 L 5.71875 19.21875 Z M 5.71875 15.292969 "/><path style=" stroke:none;fill-rule:nonzero;fill:rgb(19.999695%,47.059631%,62.348938%);fill-opacity:1;" d="M 14.730469 13.773438 C 14.707031 13.773438 14.679688 13.773438 14.65625 13.773438 C 13.582031 13.875 10.074219 14.320312 10.074219 15.820312 L 10.074219 19.414062 C 10.074219 19.632812 10.25 19.8125 10.46875 19.8125 L 18.917969 19.8125 C 19.136719 19.8125 19.3125 19.632812 19.3125 19.414062 L 19.3125 15.820312 C 19.3125 14.320312 15.804688 13.875 14.730469 13.773438 Z M 14.730469 13.773438 "/></g></svg>